<svg version="1.1" id="Capa_1" x="0px" y="0px" viewBox="0 0 14 14" style="enable-background:new 0 0 14 14;" className="eapps-pricing-table-column-features-item-icon eapps-pricing-table-column-features-item-icon-checkMarkCircle" width="15" height="15"> <g> <path d="M7,0C3.1,0,0,3.1,0,7s3.1,7,7,7s7-3.1,7-7S10.9,0,7,0z M7,12.7c-3.2,0-5.7-2.6-5.7-5.7S3.8,1.3,7,1.3s5.7,2.6,5.7,5.7 S10.2,12.7,7,12.7z"></path> <path d="M9.6,4.5L6,8.1L4.4,6.5c-0.2-0.2-0.7-0.2-0.9,0c-0.2,0.2-0.2,0.7,0,0.9l2.1,2.1C5.7,9.6,5.9,9.7,6,9.7h0 c0.2,0,0.3-0.1,0.4-0.2l4-4c0.2-0.2,0.2-0.7,0-0.9C10.3,4.3,9.9,4.3,9.6,4.5z"></path> </g> </svg>
