<svg version="1.1" id="Capa_1" x="0px" y="0px" viewBox="0 0 14 14" style="enable-background:new 0 0 14 14;" className="eapps-pricing-table-column-features-item-icon eapps-pricing-table-column-features-item-icon-like" width="15" height="15"> <path d="M13.6,7.4c0.3-1.6-1.3-3-3-3c0,0,0,0,0,0h-2L9.3,3c0.1-0.3,0.2-0.6,0.2-0.9C9.5,0.9,8.6,0,7.5,0C6.7,0,6,0.4,5.6,1.1 L3.2,5.9H1c-0.4,0-0.7,0.3-0.7,0.7v5.5c0,0.4,0.3,0.7,0.7,0.7l2,0C4,13.9,4.7,14,6.2,14h3.3c1.6,0,2.7-1.3,3.1-3L13.6,7.4z M9.4,12.6H6.2c-1.1,0-1.5,0-2.2-0.9c-0.1-0.2-0.3-0.3-0.5-0.3l-1.7,0V7.3h1.9c0.3,0,0.5-0.1,0.6-0.4l2.6-5.2C7,1.5,7.2,1.4,7.5,1.4 c0.4,0,0.7,0.3,0.7,0.7c0,0.1,0,0.2-0.1,0.3L6.9,4.8C6.8,5,6.8,5.2,6.9,5.4C7,5.6,7.3,5.8,7.5,5.8h3.1l0,0c0.9,0,1.8,0.8,1.6,1.6 l-1,3.7C11.1,11.5,10.4,12.6,9.4,12.6z"></path></svg>