<svg width="15" height="15" className="eapps-pricing-table-hint-icon-active" viewBox="0 0 14 14">
  <path d="M7,0C3.1,0,0,3.1,0,7s3.1,7,7,7s7-3.1,7-7S10.9,0,7,0z M7,11.4c-0.4,0-0.8-0.3-0.8-0.8c0-0.4,0.3-0.8,0.8-0.8
    s0.8,0.3,0.8,0.8C7.8,11,7.4,11.4,7,11.4z M7.6,7.1v0.7c0,0.3-0.3,0.6-0.6,0.6S6.4,8.2,6.4,7.8V6.5c0-0.3,0.2-0.6,0.6-0.6
    c0.6,0,1.1-0.5,1.1-1.1c0-0.6-0.5-1.1-1.1-1.1S5.9,4.2,5.9,4.8c0,0.3-0.3,0.6-0.6,0.6S4.7,5.2,4.7,4.8c0-1.3,1-2.3,2.3-2.3
    s2.3,1.1,2.3,2.4C9.3,5.9,8.6,6.8,7.6,7.1z"></path>
</svg>
